# xmcd CD database file
#
# Track frame offsets:
#	150
#	20475
#	38625
#	55800
#	73125
#	91350
#	114600
#	118350
#	139050
#	168150
#
# Disc length: 2444 seconds
#
# Revision: 1
# Processed by: cddbd v1.5.1PL0 Copyright (c) Steve Scherf et al.
# Submitted via: freeDBTagger 0.5
#
DISCID=8a098a0a
DTITLE=角松敏生 - GOLD DIGGER 〜with true love〜
DYEAR=1985
DGENRE=rock
TTITLE0=I CAN`T STOP THE NIGHT
TTITLE1=SPRINGIN` NIGHT
TTITLE2=MOVE YOUR HIPS ALL NIGHT LONG
TTITLE3=SECRET LOVER
TTITLE4=MELODY FOR YOU
TTITLE5=TOKYO TOWER
TTITLE6=PRAJNA (VIOLENCE IN THE SUBWAY)
TTITLE7=MERMAID PRINCESS
TTITLE8=IT`S TOO LATE
TTITLE9=NO END SUMMER
EXTD=
EXTT0=
EXTT1=
EXTT2=
EXTT3=
EXTT4=
EXTT5=
EXTT6=
EXTT7=
EXTT8=
EXTT9=
PLAYORDER=
